<svg width="838" height="153" viewBox="0 0 838 153" fill="none" xmlns="http://www.w3.org/2000/svg">
<path d="M117.401 5.05469H118.401V4.05469H117.401V5.05469ZM117.401 30.543V31.543H118.401V30.543H117.401ZM74.3344 30.543V29.543H73.3344V30.543H74.3344ZM74.3344 149V150H75.3344V149H74.3344ZM44.061 149H43.061V150H44.061V149ZM44.061 30.543H45.061V29.543H44.061V30.543ZM0.799255 30.543H-0.200745V31.543H0.799255V30.543ZM0.799255 5.05469V4.05469H-0.200745V5.05469H0.799255ZM116.401 5.05469V30.543H118.401V5.05469H116.401ZM117.401 29.543H74.3344V31.543H117.401V29.543ZM73.3344 30.543V149H75.3344V30.543H73.3344ZM74.3344 148H44.061V150H74.3344V148ZM45.061 149V30.543H43.061V149H45.061ZM44.061 29.543H0.799255V31.543H44.061V29.543ZM1.79926 30.543V5.05469H-0.200745V30.543H1.79926ZM0.799255 6.05469H117.401V4.05469H0.799255V6.05469ZM165.155 92.5547V91.5547H164.155V92.5547H165.155ZM165.155 149V150H166.155V149H165.155ZM135.76 149H134.76V150H135.76V149ZM135.76 5.05469V4.05469H134.76V5.05469H135.76ZM206.366 5.05469L206.385 4.05487L206.375 4.05469H206.366V5.05469ZM229.608 8.76562L229.219 9.68707L229.223 9.68869L229.608 8.76562ZM243.475 18.8242L242.714 19.4732L242.716 19.475L243.475 18.8242ZM248.456 66.2852L249.341 66.7498L249.343 66.7462L248.456 66.2852ZM231.366 80.25L231.04 79.3045L228.504 80.1775L230.993 81.1779L231.366 80.25ZM245.428 91.6758L244.553 92.1595L244.557 92.1663L244.561 92.1732L245.428 91.6758ZM250.409 137.184L251.387 136.978L251.385 136.967L250.409 137.184ZM255.877 145.387H256.877V144.827L256.4 144.534L255.877 145.387ZM255.877 149V150H256.877V149H255.877ZM222.772 149L221.81 149.275L222.018 150H222.772V149ZM220.819 141.285L219.837 141.475L219.838 141.481L220.819 141.285ZM219.549 128.883L218.549 128.897L218.549 128.898L219.549 128.883ZM219.354 115.504L218.354 115.518V115.518L219.354 115.504ZM214.276 97.1445L213.584 97.8663L213.591 97.8732L214.276 97.1445ZM214.471 66.3828L214.056 65.4731L214.052 65.4749L214.471 66.3828ZM214.764 32.5938L214.303 33.481L214.305 33.4821L214.764 32.5938ZM165.155 30.0547V29.0547H164.155V30.0547H165.155ZM165.155 68.7266H164.155V69.7266H165.155V68.7266ZM196.209 91.5547H165.155V93.5547H196.209V91.5547ZM164.155 92.5547V149H166.155V92.5547H164.155ZM165.155 148H135.76V150H165.155V148ZM136.76 149V5.05469H134.76V149H136.76ZM135.76 6.05469H206.366V4.05469H135.76V6.05469ZM206.346 6.0545C216.389 6.24887 223.988 7.48102 229.219 9.68704L229.996 7.84421C224.421 5.49295 216.525 4.25113 206.385 4.05487L206.346 6.0545ZM229.223 9.68869C234.549 11.908 239.042 15.168 242.714 19.4732L244.236 18.1753C240.356 13.6263 235.604 10.1806 229.992 7.84256L229.223 9.68869ZM242.716 19.475C245.772 23.0404 248.19 26.9858 249.972 31.3143L251.822 30.5529C249.958 26.0272 247.428 21.8997 244.234 18.1734L242.716 19.475ZM249.972 31.3143C251.737 35.6007 252.631 40.5134 252.631 46.0703H254.631C254.631 40.2991 253.702 35.1207 251.822 30.5529L249.972 31.3143ZM252.631 46.0703C252.631 52.7309 250.952 59.3121 247.568 65.8241L249.343 66.7462C252.86 59.977 254.631 53.0816 254.631 46.0703H252.631ZM247.57 65.8205C244.254 72.1401 238.776 76.6414 231.04 79.3045L231.691 81.1955C239.841 78.3899 245.756 73.5813 249.341 66.7498L247.57 65.8205ZM230.993 81.1779C237.478 83.7846 241.957 87.4617 244.553 92.1595L246.303 91.1921C243.431 85.9941 238.535 82.054 231.739 79.3221L230.993 81.1779ZM244.561 92.1732C247.229 96.8271 248.627 104.101 248.627 114.137H250.627C250.627 103.99 249.226 96.29 246.296 91.1784L244.561 92.1732ZM248.627 114.137V123.805H250.627V114.137H248.627ZM248.627 123.805C248.627 130.369 248.884 134.934 249.432 137.401L251.385 136.967C250.891 134.745 250.627 130.392 250.627 123.805H248.627ZM249.43 137.39C250.26 141.331 252.224 144.318 255.354 146.239L256.4 144.534C253.801 142.939 252.12 140.458 251.387 136.978L249.43 137.39ZM254.877 145.387V149H256.877V145.387H254.877ZM255.877 148H222.772V150H255.877V148ZM223.733 148.725C222.825 145.547 222.182 143.004 221.799 141.089L219.838 141.481C220.236 143.472 220.896 146.073 221.81 149.275L223.733 148.725ZM221.801 141.095C221.031 137.118 220.613 133.042 220.549 128.867L218.549 128.898C218.615 133.187 219.044 137.379 219.837 141.475L221.801 141.095ZM220.549 128.868L220.354 115.489L218.354 115.518L218.549 128.897L220.549 128.868ZM220.354 115.49C220.288 110.849 219.827 106.932 218.951 103.763C218.075 100.597 216.767 98.1136 214.961 96.4159L213.591 97.8732C215.04 99.2354 216.206 101.342 217.023 104.296C217.839 107.246 218.29 110.979 218.354 115.518L220.354 115.49ZM214.968 96.4229C211.477 93.074 205.099 91.5547 196.209 91.5547V93.5547C205.029 93.5547 210.695 95.0953 213.584 97.8662L214.968 96.4229ZM214.886 67.2925C218.062 65.8427 220.476 63.6657 222.084 60.764C223.685 57.8752 224.456 54.3275 224.456 50.1719H222.456C222.456 54.0892 221.729 57.2797 220.335 59.7946C218.948 62.2966 216.87 64.1886 214.056 65.4731L214.886 67.2925ZM224.456 50.1719C224.456 41.2205 221.462 34.9301 215.223 31.7054L214.305 33.4821C219.654 36.2469 222.456 41.6753 222.456 50.1719H224.456ZM215.225 31.7065C211.756 29.9026 206.68 29.0547 200.116 29.0547V31.0547C206.572 31.0547 211.261 31.8994 214.303 33.481L215.225 31.7065ZM200.116 29.0547H165.155V31.0547H200.116V29.0547ZM164.155 30.0547V68.7266H166.155V30.0547H164.155ZM165.155 69.7266H199.237V67.7266H165.155V69.7266ZM199.237 69.7266C206.053 69.7266 211.306 68.945 214.89 67.2908L214.052 65.4749C210.865 66.9456 205.962 67.7266 199.237 67.7266V69.7266ZM277.264 5.05469V4.05469H276.264V5.05469H277.264ZM307.147 5.05469H308.147V4.05469H307.147V5.05469ZM307.147 149V150H308.147V149H307.147ZM277.264 149H276.264V150H277.264V149ZM277.264 6.05469H307.147V4.05469H277.264V6.05469ZM306.147 5.05469V149H308.147V5.05469H306.147ZM307.147 148H277.264V150H307.147V148ZM278.264 149V5.05469H276.264V149H278.264ZM404.803 125.855L405.136 126.798L405.139 126.797L404.803 125.855ZM411.151 98.1211L411.681 97.2731L411.671 97.2672L411.151 98.1211ZM391.522 91.3828L391.303 92.3586L391.308 92.3597L391.522 91.3828ZM376.288 87.9648L376.067 88.9402L376.069 88.9406L376.288 87.9648ZM345.233 76.9297L345.803 76.1078L345.798 76.1045L345.233 76.9297ZM344.745 13.6484L344.072 12.9087L344.745 13.6484ZM424.823 12.9648L424.22 13.7625L424.225 13.7666L424.823 12.9648ZM441.717 47.9258V48.9258H442.752L442.717 47.8918L441.717 47.9258ZM412.811 47.9258L411.813 47.9858L411.869 48.9258H412.811V47.9258ZM401.483 29.4688L401.943 28.581L401.94 28.5793L401.483 29.4688ZM365.448 30.543L364.888 29.7145L365.448 30.543ZM365.35 55.1523L365.85 54.2865L365.844 54.2826L365.837 54.2788L365.35 55.1523ZM384.1 61.1094L384.334 60.137L384.332 60.1366L384.1 61.1094ZM408.905 67.0664L408.671 68.0388L408.672 68.0389L408.905 67.0664ZM433.514 77.5156L432.895 78.301L432.895 78.3011L433.514 77.5156ZM431.268 139.723L431.922 140.479L431.922 140.479L431.268 139.723ZM344.452 139.918L343.827 140.699L343.83 140.701L344.452 139.918ZM328.338 104.566V103.566H327.338V104.566H328.338ZM357.049 104.566L358.04 104.429L357.92 103.566H357.049V104.566ZM362.42 119.312L361.647 119.947L361.649 119.948L362.42 119.312ZM387.518 129.199C394.676 129.199 400.562 128.413 405.136 126.798L404.47 124.912C400.19 126.423 394.553 127.199 387.518 127.199V129.199ZM405.139 126.797C409.471 125.253 412.804 123.014 415.05 120.037C417.301 117.052 418.401 113.405 418.401 109.156H416.401C416.401 113.046 415.401 116.25 413.453 118.832C411.5 121.421 408.533 123.464 404.467 124.914L405.139 126.797ZM418.401 109.156C418.401 104.045 416.128 100.052 411.681 97.2731L410.621 98.9691C414.507 101.398 416.401 104.762 416.401 109.156H418.401ZM411.671 97.2672C407.36 94.6401 400.686 92.3659 391.736 90.4059L391.308 92.3597C400.196 94.306 406.608 96.5239 410.63 98.975L411.671 97.2672ZM391.741 90.407L376.506 86.9891L376.069 88.9406L391.303 92.3586L391.741 90.407ZM376.508 86.9894C361.545 83.6064 351.36 79.9603 345.803 76.1078L344.663 77.7516C350.564 81.8417 361.082 85.5524 376.067 88.9402L376.508 86.9894ZM345.798 76.1045C336.427 69.6895 331.682 59.651 331.682 45.7773H329.682C329.682 60.1589 334.638 70.8886 344.668 77.7549L345.798 76.1045ZM331.682 45.7773C331.682 33.1628 336.255 22.7236 345.417 14.3882L344.072 12.9087C334.484 21.6306 329.682 32.6106 329.682 45.7773H331.682ZM345.417 14.3882C354.542 6.08719 368.031 1.85547 386.053 1.85547V-0.144531C367.747 -0.144531 353.697 4.15237 344.072 12.9087L345.417 14.3882ZM386.053 1.85547C401.035 1.85547 413.739 5.8381 424.22 13.7625L425.426 12.1672C414.552 3.94574 401.41 -0.144531 386.053 -0.144531V1.85547ZM424.225 13.7666C434.687 21.5655 440.206 32.9151 440.718 47.9598L442.717 47.8918C442.187 32.3375 436.443 20.3798 425.42 12.1631L424.225 13.7666ZM441.717 46.9258H412.811V48.9258H441.717V46.9258ZM413.809 47.8658C413.27 38.8959 409.321 32.4066 401.943 28.581L401.023 30.3565C407.707 33.8225 411.311 39.6379 411.813 47.9858L413.809 47.8658ZM401.94 28.5793C397.073 26.0782 391.078 24.8555 384.002 24.8555V26.8555C390.859 26.8555 396.518 28.0415 401.026 30.3582L401.94 28.5793ZM384.002 24.8555C376.13 24.8555 369.728 26.442 364.888 29.7145L366.008 31.3714C370.412 28.3939 376.38 26.8555 384.002 26.8555V24.8555ZM364.888 29.7145C359.989 33.0263 357.514 37.6993 357.514 43.6289H359.514C359.514 38.3606 361.662 34.3097 366.008 31.3714L364.888 29.7145ZM357.514 43.6289C357.514 46.3524 358.119 48.7802 359.363 50.8774C360.607 52.9738 362.457 54.685 364.863 56.0259L365.837 54.2788C363.686 53.0807 362.118 51.6017 361.083 49.857C360.049 48.113 359.514 46.0486 359.514 43.6289H357.514ZM364.85 56.0182C367.926 57.7957 374.32 59.8087 383.868 62.0822L384.332 60.1366C374.74 57.8528 368.633 55.8944 365.85 54.2865L364.85 56.0182ZM383.867 62.0817L408.671 68.0388L409.138 66.0941L384.334 60.137L383.867 62.0817ZM408.672 68.0389C419.477 70.627 427.522 74.0659 432.895 78.301L434.133 76.7303C428.438 72.2414 420.077 68.7142 409.138 66.0939L408.672 68.0389ZM432.895 78.3011C441.205 84.8484 445.405 94.3318 445.405 106.91H447.405C447.405 93.8375 443.01 83.7244 434.133 76.7301L432.895 78.3011ZM445.405 106.91C445.405 119.766 440.489 130.429 430.614 138.966L431.922 140.479C442.229 131.568 447.405 120.356 447.405 106.91H445.405ZM430.614 138.966C420.829 147.417 406.902 151.711 388.69 151.711V153.711C407.197 153.711 421.654 149.347 431.922 140.479L430.614 138.966ZM388.69 151.711C370.084 151.711 355.584 147.479 345.073 139.135L343.83 140.701C354.804 149.414 369.796 153.711 388.69 153.711V151.711ZM345.076 139.137C334.594 130.752 329.338 119.267 329.338 104.566H327.338C327.338 119.813 332.824 131.897 343.827 140.699L345.076 139.137ZM328.338 105.566H357.049V103.566H328.338V105.566ZM356.059 104.704C356.982 111.366 358.812 116.489 361.647 119.947L363.194 118.678C360.69 115.625 358.939 110.918 358.04 104.429L356.059 104.704ZM361.649 119.948C366.805 126.205 375.534 129.199 387.518 129.199V127.199C375.804 127.199 367.801 124.269 363.192 118.677L361.649 119.948ZM573.26 5.05469H574.26V4.05469H573.26V5.05469ZM573.26 30.543V31.543H574.26V30.543H573.26ZM530.194 30.543V29.543H529.194V30.543H530.194ZM530.194 149V150H531.194V149H530.194ZM499.92 149H498.92V150H499.92V149ZM499.92 30.543H500.92V29.543H499.92V30.543ZM456.659 30.543H455.659V31.543H456.659V30.543ZM456.659 5.05469V4.05469H455.659V5.05469H456.659ZM572.26 5.05469V30.543H574.26V5.05469H572.26ZM573.26 29.543H530.194V31.543H573.26V29.543ZM529.194 30.543V149H531.194V30.543H529.194ZM530.194 148H499.92V150H530.194V148ZM500.92 149V30.543H498.92V149H500.92ZM499.92 29.543H456.659V31.543H499.92V29.543ZM457.659 30.543V5.05469H455.659V30.543H457.659ZM456.659 6.05469H573.26V4.05469H456.659V6.05469ZM660.37 119.41L661.324 119.111L661.104 118.41H660.37V119.41ZM607.342 119.41V118.41H606.624L606.394 119.091L607.342 119.41ZM597.381 149V150H598.1L598.329 149.319L597.381 149ZM565.936 149L564.994 148.664L564.517 150H565.936V149ZM617.303 5.05469V4.05469H616.598L616.361 4.7186L617.303 5.05469ZM651.288 5.05469L652.23 4.72086L651.994 4.05469H651.288V5.05469ZM702.264 149V150H703.679L703.207 148.666L702.264 149ZM669.647 149L668.693 149.299L668.912 150H669.647V149ZM651.971 94.6055V95.6055H653.337L652.924 94.3031L651.971 94.6055ZM634.002 37.9648L634.956 37.6624L634.018 34.706L633.052 37.6535L634.002 37.9648ZM615.448 94.6055L614.497 94.2942L614.068 95.6055H615.448V94.6055ZM660.37 118.41H607.342V120.41H660.37V118.41ZM606.394 119.091L596.434 148.681L598.329 149.319L608.29 119.729L606.394 119.091ZM597.381 148H565.936V150H597.381V148ZM566.878 149.336L618.245 5.39078L616.361 4.7186L564.994 148.664L566.878 149.336ZM617.303 6.05469H651.288V4.05469H617.303V6.05469ZM650.345 5.38852L701.321 149.334L703.207 148.666L652.23 4.72086L650.345 5.38852ZM702.264 148H669.647V150H702.264V148ZM670.601 148.701L661.324 119.111L659.415 119.709L668.693 149.299L670.601 148.701ZM652.924 94.3031L634.956 37.6624L633.049 38.2672L651.018 94.9078L652.924 94.3031ZM633.052 37.6535L614.497 94.2942L616.398 94.9167L634.953 38.2762L633.052 37.6535ZM615.448 95.6055H651.971V93.6055H615.448V95.6055ZM837.03 149V150H838.03V149H837.03ZM806.952 149L806.085 149.498L806.373 150H806.952V149ZM748.163 46.7539L749.029 46.2555L747.163 43.0085V46.7539H748.163ZM748.163 149V150H749.163V149H748.163ZM720.135 149H719.135V150H720.135V149ZM720.135 5.05469V4.05469H719.135V5.05469H720.135ZM751.678 5.05469L752.547 4.55917L752.259 4.05469H751.678V5.05469ZM809.002 105.543L808.134 106.038L810.002 109.314V105.543H809.002ZM809.002 5.05469V4.05469H808.002V5.05469H809.002ZM837.03 5.05469H838.03V4.05469H837.03V5.05469ZM837.03 148H806.952V150H837.03V148ZM807.818 148.502L749.029 46.2555L747.296 47.2523L806.085 149.498L807.818 148.502ZM747.163 46.7539V149H749.163V46.7539H747.163ZM748.163 148H720.135V150H748.163V148ZM721.135 149V5.05469H719.135V149H721.135ZM720.135 6.05469H751.678V4.05469H720.135V6.05469ZM750.81 5.5502L808.134 106.038L809.871 105.047L752.547 4.55917L750.81 5.5502ZM810.002 105.543V5.05469H808.002V105.543H810.002ZM809.002 6.05469H837.03V4.05469H809.002V6.05469ZM836.03 5.05469V149H838.03V5.05469H836.03Z" fill="white"/>
</svg>
