<svg width="19" height="18" viewBox="0 0 19 18" fill="none" xmlns="http://www.w3.org/2000/svg">
<g clip-path="url(#clip0_117_23)">
<path fill-rule="evenodd" clip-rule="evenodd" d="M17.3672 10.2943L15.3247 9L17.3672 7.70569V10.2943ZM10.3164 15.7809V12.1736L13.8563 9.93094L16.7135 11.7411L10.3164 15.7809ZM9.5 10.8298L6.61259 9L9.5 7.17019L12.388 9L9.5 10.8298ZM8.68359 15.7809L2.28653 11.7411L5.14425 9.93094L8.68359 12.1736V15.7809ZM1.63281 7.70569L3.67591 9L1.63281 10.2943V7.70569ZM8.68359 2.21906V5.82638L5.14425 8.06962L2.28653 6.25894L8.68359 2.21906ZM10.3164 2.21906L16.7135 6.25894L13.8563 8.06962L10.3164 5.82638V2.21906ZM18.9929 6.15712C18.9911 6.14531 18.9881 6.13462 18.9863 6.12337C18.9822 6.10144 18.978 6.0795 18.9721 6.05869C18.9685 6.04575 18.9632 6.03338 18.959 6.021C18.9525 6.00188 18.946 5.98331 18.9382 5.96475C18.9329 5.95181 18.9264 5.93888 18.9198 5.92706C18.9115 5.90906 18.9026 5.89219 18.8919 5.87587C18.8848 5.8635 18.8765 5.85169 18.8688 5.83987C18.8581 5.82356 18.8468 5.80781 18.8343 5.79262C18.8254 5.78137 18.8159 5.77012 18.8064 5.75944C18.7934 5.74481 18.7797 5.73075 18.7655 5.71725C18.7548 5.70712 18.7447 5.69644 18.7334 5.68744C18.718 5.6745 18.7025 5.66213 18.6871 5.65031C18.6746 5.64131 18.6627 5.63231 18.6503 5.62388C18.6455 5.62106 18.6414 5.61713 18.6366 5.61431L9.95303 0.129937C9.67872 -0.0433125 9.32188 -0.0433125 9.04697 0.129937L0.363969 5.61431C0.359219 5.61713 0.355062 5.62106 0.350312 5.62388C0.33725 5.63231 0.325375 5.64131 0.3135 5.65031C0.297469 5.66213 0.282031 5.6745 0.267188 5.68744C0.255906 5.69644 0.245219 5.70712 0.234531 5.71725C0.220281 5.73075 0.206625 5.74481 0.194156 5.75944C0.184062 5.77012 0.174562 5.78137 0.165656 5.79262C0.153781 5.80781 0.1425 5.82356 0.131812 5.83987C0.1235 5.85169 0.115781 5.8635 0.108062 5.87587C0.0979687 5.89219 0.0890625 5.90906 0.0801563 5.92706C0.0742188 5.93888 0.0676875 5.95181 0.0623437 5.96475C0.0540312 5.98331 0.0475 6.00188 0.0409687 6.021C0.0368125 6.03338 0.0320625 6.04575 0.0285 6.05869C0.0225625 6.0795 0.0184062 6.10144 0.01425 6.12337C0.011875 6.13462 0.00890625 6.14531 0.00771875 6.15712C0.00296875 6.18975 0 6.2235 0 6.25781V11.7422C0 11.7759 0.00296875 11.8097 0.00771875 11.8434C0.00890625 11.8541 0.011875 11.8654 0.01425 11.8766C0.0184062 11.8986 0.0225625 11.9199 0.0285 11.9413C0.0320625 11.9543 0.0368125 11.9666 0.0409687 11.979C0.0475 11.9976 0.0540312 12.0167 0.0623437 12.0358C0.0676875 12.0482 0.0742188 12.0606 0.0801563 12.0729C0.0890625 12.0904 0.0979687 12.1072 0.108062 12.1247C0.115781 12.1365 0.1235 12.1483 0.131812 12.1601C0.1425 12.1764 0.153781 12.1916 0.165656 12.2068C0.174562 12.2186 0.184062 12.2299 0.194156 12.2406C0.206625 12.2546 0.220281 12.2692 0.234531 12.2822C0.245219 12.2929 0.255906 12.303 0.267188 12.3126C0.282031 12.3255 0.297469 12.3379 0.3135 12.3497C0.325375 12.3587 0.33725 12.3677 0.350312 12.3761C0.355062 12.3789 0.359219 12.3829 0.363969 12.3857L9.04697 17.8701C9.18413 17.9567 9.34206 18 9.5 18C9.65794 18 9.81588 17.9567 9.95303 17.8701L18.6366 12.3857C18.6414 12.3829 18.6455 12.3789 18.6503 12.3761C18.6627 12.3677 18.6746 12.3587 18.6871 12.3497C18.7025 12.3379 18.718 12.3255 18.7334 12.3126C18.7447 12.303 18.7548 12.2929 18.7655 12.2822C18.7797 12.2692 18.7934 12.2546 18.8064 12.2406C18.8159 12.2299 18.8254 12.2186 18.8343 12.2068C18.8468 12.1916 18.8581 12.1764 18.8688 12.1601C18.8765 12.1483 18.8848 12.1365 18.8919 12.1247C18.9026 12.1072 18.9115 12.0904 18.9198 12.0729C18.9264 12.0606 18.9329 12.0482 18.9382 12.0358C18.946 12.0167 18.9525 11.9976 18.959 11.979C18.9632 11.9666 18.9685 11.9543 18.9721 11.9413C18.978 11.9199 18.9822 11.8986 18.9863 11.8766C18.9881 11.8654 18.9911 11.8541 18.9929 11.8434C18.9976 11.8097 19 11.7759 19 11.7422V6.25781C19 6.2235 18.9976 6.18975 18.9929 6.15712Z" fill="black"/>
</g>
<defs>
<clipPath id="clip0_117_23">
<rect width="19" height="18" fill="white"/>
</clipPath>
</defs>
</svg>
