<svg width="26" height="16" viewBox="0 0 26 16" fill="none" xmlns="http://www.w3.org/2000/svg">
<path d="M8.93555 10.2832H11.8555C11.7969 11.2402 11.5332 12.0898 11.0645 12.832C10.6022 13.5742 9.95443 14.1536 9.12109 14.5703C8.29427 14.987 7.29818 15.1953 6.13281 15.1953C5.22135 15.1953 4.4043 15.0391 3.68164 14.7266C2.95898 14.4076 2.34049 13.9518 1.82617 13.3594C1.31836 12.7669 0.93099 12.0508 0.664062 11.2109C0.397135 10.3711 0.263672 9.43034 0.263672 8.38867V7.40234C0.263672 6.36068 0.400391 5.41992 0.673828 4.58008C0.953776 3.73372 1.35091 3.01432 1.86523 2.42188C2.38607 1.82943 3.00781 1.3737 3.73047 1.05469C4.45312 0.735677 5.26042 0.576172 6.15234 0.576172C7.33724 0.576172 8.33659 0.791016 9.15039 1.2207C9.9707 1.65039 10.6055 2.24284 11.0547 2.99805C11.5104 3.75326 11.7839 4.61263 11.875 5.57617H8.94531C8.91276 5.00326 8.79883 4.51823 8.60352 4.12109C8.4082 3.71745 8.11198 3.41471 7.71484 3.21289C7.32422 3.00456 6.80339 2.90039 6.15234 2.90039C5.66406 2.90039 5.23763 2.99154 4.87305 3.17383C4.50846 3.35612 4.20247 3.63281 3.95508 4.00391C3.70768 4.375 3.52214 4.84375 3.39844 5.41016C3.28125 5.97005 3.22266 6.6276 3.22266 7.38281V8.38867C3.22266 9.12435 3.27799 9.77214 3.38867 10.332C3.49935 10.8854 3.66862 11.3542 3.89648 11.7383C4.13086 12.1159 4.43034 12.4023 4.79492 12.5977C5.16602 12.7865 5.61198 12.8809 6.13281 12.8809C6.74479 12.8809 7.24935 12.7832 7.64648 12.5879C8.04362 12.3926 8.34635 12.1029 8.55469 11.7188C8.76953 11.3346 8.89648 10.8561 8.93555 10.2832ZM18.9062 12.0312L22.2559 0.78125H25.5176L20.5664 15H18.418L18.9062 12.0312ZM15.8203 0.78125L19.1602 12.0312L19.668 15H17.5L12.5781 0.78125H15.8203Z" fill="black"/>
</svg>
