<svg width="17" height="17" viewBox="0 0 17 17" fill="none" xmlns="http://www.w3.org/2000/svg">
<path d="M3.80527 16.6251H0.280804V5.5257H3.80527V16.6251ZM2.04114 4.01164C0.914129 4.01164 0 3.09875 0 1.9966C8.06665e-09 1.4672 0.215048 0.95948 0.597836 0.585136C0.980623 0.210792 1.49979 0.000488281 2.04114 0.000488281C2.58248 0.000488281 3.10165 0.210792 3.48444 0.585136C3.86723 0.95948 4.08228 1.4672 4.08228 1.9966C4.08228 3.09875 3.16777 4.01164 2.04114 4.01164ZM16.9962 16.6251H13.4793V11.222C13.4793 9.9343 13.4528 8.28293 11.6469 8.28293C9.81446 8.28293 9.53366 9.68195 9.53366 11.1292V16.6251H6.01299V5.5257H9.39326V7.03977H9.44259C9.91313 6.1677 11.0625 5.24738 12.7773 5.24738C16.3443 5.24738 17 7.54445 17 10.528V16.6251H16.9962Z" fill="black"/>
</svg>
